<svg xmlns="http://www.w3.org/2000/svg" xmlns:xlink="http://www.w3.org/1999/xlink" width="500" zoomAndPan="magnify" viewBox="0 0 375 374.999991" height="500" preserveAspectRatio="xMidYMid meet" version="1.0"><defs><g/><clipPath id="a0096a1613"><path d="M 92.867188 95.515625 L 263.160156 95.515625 L 263.160156 285 L 92.867188 285 Z M 92.867188 95.515625 " clip-rule="nonzero"/></clipPath><clipPath id="a62f700fcd"><path d="M 178.015625 95.515625 C 130.988281 95.515625 92.867188 137.867188 92.867188 190.113281 C 92.867188 242.359375 130.988281 284.710938 178.015625 284.710938 C 225.039062 284.710938 263.160156 242.359375 263.160156 190.113281 C 263.160156 137.867188 225.039062 95.515625 178.015625 95.515625 " clip-rule="nonzero"/></clipPath></defs><rect x="-37.5" width="450" fill="#ffffff" y="-37.499999" height="449.999989" fill-opacity="1"/><rect x="-37.5" width="450" fill="#ffffff" y="-37.499999" height="449.999989" fill-opacity="1"/><rect x="-37.5" width="450" fill="#ffffff" y="-37.499999" height="449.999989" fill-opacity="1"/><g clip-path="url(#a0096a1613)"><g clip-path="url(#a62f700fcd)"><path fill="#efebe2" d="M 92.867188 95.515625 L 263.160156 95.515625 L 263.160156 284.433594 L 92.867188 284.433594 Z M 92.867188 95.515625 " fill-opacity="1" fill-rule="nonzero"/></g></g><g fill="#483285" fill-opacity="1"><g transform="translate(151.989794, 223.014684)"><g><path d="M 46.6875 -23.4375 C 46.09375 -20.507812 45.160156 -17.46875 43.890625 -14.3125 C 42.628906 -11.15625 41.003906 -8.273438 39.015625 -5.671875 C 37.023438 -3.066406 34.660156 -0.9375 31.921875 0.71875 C 29.191406 2.382812 26.070312 3.21875 22.5625 3.21875 C 19.957031 3.21875 17.613281 2.695312 15.53125 1.65625 C 13.445312 0.613281 11.554688 -0.78125 9.859375 -2.53125 C 8.171875 -4.289062 6.707031 -6.3125 5.46875 -8.59375 C 4.226562 -10.875 3.203125 -13.234375 2.390625 -15.671875 C 1.578125 -18.117188 0.972656 -20.546875 0.578125 -22.953125 C 0.191406 -25.359375 0 -27.601562 0 -29.6875 C 0 -32.613281 0.273438 -35.753906 0.828125 -39.109375 C 1.378906 -42.460938 2.207031 -45.78125 3.3125 -49.0625 C 4.425781 -52.351562 5.828125 -55.515625 7.515625 -58.546875 C 9.210938 -61.578125 11.21875 -64.242188 13.53125 -66.546875 C 15.84375 -68.859375 18.445312 -70.710938 21.34375 -72.109375 C 24.238281 -73.515625 27.476562 -74.21875 31.0625 -74.21875 C 33.332031 -74.21875 35.441406 -73.773438 37.390625 -72.890625 C 39.347656 -72.015625 41.039062 -70.84375 42.46875 -69.375 C 43.90625 -67.914062 45.03125 -66.175781 45.84375 -64.15625 C 46.664062 -62.144531 47.078125 -60.03125 47.078125 -57.8125 L 47.078125 -56.9375 C 47.078125 -55.757812 47.023438 -54.304688 46.921875 -52.578125 C 46.828125 -50.859375 46.519531 -49.21875 46 -47.65625 C 45.476562 -46.09375 44.695312 -44.738281 43.65625 -43.59375 C 42.613281 -42.457031 41.148438 -41.890625 39.265625 -41.890625 C 36.984375 -41.890625 35.253906 -42.410156 34.078125 -43.453125 C 32.910156 -44.492188 32.328125 -46.222656 32.328125 -48.640625 C 32.328125 -49.546875 32.359375 -50.453125 32.421875 -51.359375 C 32.484375 -52.273438 32.515625 -53.191406 32.515625 -54.109375 C 32.515625 -55.472656 32.285156 -56.53125 31.828125 -57.28125 C 31.378906 -58.03125 30.4375 -58.40625 29 -58.40625 C 27.375 -58.40625 25.910156 -57.882812 24.609375 -56.84375 C 23.304688 -55.800781 22.164062 -54.429688 21.1875 -52.734375 C 20.21875 -51.046875 19.375 -49.125 18.65625 -46.96875 C 17.9375 -44.820312 17.347656 -42.65625 16.890625 -40.46875 C 16.441406 -38.289062 16.117188 -36.191406 15.921875 -34.171875 C 15.722656 -32.160156 15.625 -30.4375 15.625 -29 C 15.625 -27.832031 15.6875 -26.484375 15.8125 -24.953125 C 15.945312 -23.421875 16.222656 -21.953125 16.640625 -20.546875 C 17.066406 -19.148438 17.703125 -17.960938 18.546875 -16.984375 C 19.398438 -16.015625 20.507812 -15.53125 21.875 -15.53125 C 24.21875 -15.53125 26.101562 -16.257812 27.53125 -17.71875 C 28.96875 -19.1875 29.945312 -21.0625 30.46875 -23.34375 C 29.5625 -23.46875 28.664062 -23.675781 27.78125 -23.96875 C 26.90625 -24.269531 26.09375 -24.695312 25.34375 -25.25 C 24.59375 -25.800781 23.988281 -26.484375 23.53125 -27.296875 C 23.082031 -28.109375 22.859375 -29.066406 22.859375 -30.171875 C 22.859375 -32.191406 23.539062 -33.769531 24.90625 -34.90625 C 26.269531 -36.050781 27.878906 -36.914062 29.734375 -37.5 C 31.585938 -38.082031 33.488281 -38.457031 35.4375 -38.625 C 37.394531 -38.789062 38.960938 -38.875 40.140625 -38.875 C 40.984375 -38.875 42.21875 -38.804688 43.84375 -38.671875 C 45.476562 -38.546875 47.09375 -38.269531 48.6875 -37.84375 C 50.28125 -37.414062 51.660156 -36.8125 52.828125 -36.03125 C 54.003906 -35.25 54.59375 -34.242188 54.59375 -33.015625 C 54.59375 -30.535156 53.925781 -28.398438 52.59375 -26.609375 C 51.257812 -24.816406 49.289062 -23.757812 46.6875 -23.4375 Z M 46.6875 -23.4375 "/></g></g></g></svg>